<svg width="192" height="192" viewBox="0 0 192 192" fill="none" xmlns="http://www.w3.org/2000/svg">
<path d="M54.2401 96.6513C53.8974 87.5705 55.3864 79.3981 58.4881 71.5507C64.4563 56.4461 72.9332 50.996 89.2331 51.5889C111.716 52.4062 134.644 72.217 137.94 93.6733C139.418 103.298 133.873 114.92 125.513 119.723C115.823 125.289 104.733 124.787 96.8834 118.499C91.0199 113.805 88.556 108.117 90.8513 100.596C91.9595 96.964 93.7042 93.4911 93.7246 89.5218C93.7395 86.6921 92.8434 84.4172 90.1333 83.6801C87.7931 83.0424 85.7289 84.3954 84.346 86.325C83.5832 87.3883 82.9876 88.691 82.7184 89.9692C80.1252 102.296 82.2302 113.771 91.7814 122.249C101.422 130.805 113.152 131.496 124.807 126.499C136.604 121.44 143.055 112.107 143.93 99.2213C144.947 84.2322 137.736 72.4904 127.811 62.5258C111.76 46.4108 91.3762 39.7777 69.1503 38.1405C63.4147 37.719 58.6431 40.2536 56.772 45.7214C48.7914 69.0392 44.1368 95.6804 52.3486 120.24C56.5123 132.69 60.9534 139.209 69.8397 149.35C72.6735 152.584 77.5348 156.059 80.3033 159.343C85.1442 165.086 85.5046 170.582 81.6999 176.006C77.8299 181.524 71.4511 183.72 65.0083 181.641C60.6312 180.229 56.908 177.758 53.6567 174.482C27.3542 147.981 16.2514 116.241 19.8644 79.031C21.1576 65.7104 23.8241 52.7366 27.0972 39.8647C32.5554 18.4044 45.0003 8.0237 66.5789 9.79959C103.916 12.87 136.603 27.7217 159.709 57.572C189.521 96.0869 165.262 149.198 118.73 157.978C82.0316 164.902 64.9132 138.698 57.6342 117.26C56.1112 112.773 53.6867 100.833 54.2401 96.6513" fill="#DA2B42"/>
</svg>
