<svg width="512" height="512" viewBox="0 0 512 512" fill="none" xmlns="http://www.w3.org/2000/svg">
<path d="M144.64 257.737C143.726 233.521 147.697 211.728 155.968 190.802C171.883 150.523 194.489 135.989 237.955 137.57C297.909 139.75 359.05 192.579 367.839 249.795C371.781 275.461 356.994 306.454 334.7 319.261C308.86 334.103 279.289 332.765 258.356 315.998C242.72 303.48 236.149 288.312 242.27 268.256C245.225 258.571 249.878 249.31 249.932 238.725C249.972 231.179 247.582 225.112 240.355 223.147C234.115 221.446 228.61 225.054 224.923 230.2C222.888 233.036 221.3 236.509 220.582 239.918C213.667 272.789 219.28 303.39 244.75 325.999C270.46 348.814 301.739 350.656 332.818 337.33C364.278 323.841 381.481 298.951 383.812 264.59C386.525 224.619 367.295 193.308 340.828 166.735C298.025 123.762 243.67 106.074 184.401 101.708C169.106 100.584 156.382 107.343 151.392 121.924C130.11 184.105 117.698 255.148 139.596 320.639C150.699 353.84 162.542 371.224 186.239 398.267C193.796 406.89 206.759 416.159 214.142 424.916C227.051 440.229 228.012 454.886 217.866 469.35C207.546 484.065 190.536 489.921 173.355 484.377C161.683 480.609 151.755 474.021 143.085 465.285C72.9444 394.616 43.3371 309.975 52.9717 210.749C56.4201 175.228 63.531 140.631 72.2591 106.306C86.8143 49.0784 120.001 21.3965 177.544 26.1322C277.11 34.32 364.275 73.9246 425.89 153.525C505.389 256.232 440.699 397.861 316.613 421.275C218.751 439.739 173.102 369.86 153.691 312.694C149.63 300.728 143.164 268.887 144.64 257.737" fill="#DA2B42"/>
</svg>
