<svg width="759" height="949" viewBox="0 0 759 949" fill="none" xmlns="http://www.w3.org/2000/svg">
<path d="M268.375 477.223C266.68 432.292 274.047 391.856 289.394 353.027C318.924 278.291 360.868 251.324 441.518 254.258C552.762 258.302 666.205 356.324 682.514 462.488C689.828 510.11 662.39 567.616 621.026 591.379C573.081 618.918 518.212 616.435 479.371 585.324C450.359 562.098 438.167 533.955 449.525 496.741C455.008 478.77 463.64 461.586 463.741 441.947C463.815 427.946 459.381 416.689 445.972 413.043C434.393 409.887 424.18 416.582 417.337 426.129C413.563 431.39 410.616 437.836 409.283 444.16C396.453 505.151 406.868 561.93 454.127 603.88C501.829 646.214 559.867 649.632 617.534 624.906C675.907 599.877 707.826 553.695 712.152 489.939C717.185 415.774 681.505 357.677 632.396 308.372C552.977 228.637 452.122 195.817 342.15 187.716C313.77 185.631 290.161 198.172 280.903 225.226C241.416 340.6 218.385 472.419 259.017 593.936C279.618 655.539 301.592 687.794 345.561 737.973C359.582 753.972 383.636 771.17 397.334 787.418C421.286 815.831 423.069 843.026 404.244 869.865C385.096 897.168 353.534 908.034 321.656 897.747C299.998 890.756 281.576 878.531 265.489 862.323C135.346 731.198 80.4106 574.149 98.2874 390.039C104.686 324.13 117.88 259.936 134.075 196.248C161.081 90.0637 222.658 38.7008 329.427 47.4878C514.169 62.68 675.901 136.165 790.226 283.862C937.734 474.43 817.703 737.219 587.465 780.663C405.886 814.923 321.185 685.264 285.169 579.195C277.633 556.992 265.637 497.912 268.375 477.223Z" fill="#F7F7F7"/>
</svg>
